<?xml version="1.0" encoding="UTF-8"?>
<svg width="32px" height="32px" viewBox="0 0 32 32" version="1.1" xmlns="http://www.w3.org/2000/svg" xmlns:xlink="http://www.w3.org/1999/xlink">
    <title>fav_icon</title>
    <g id="fav_icon" stroke="none" stroke-width="1" fill="none" fill-rule="evenodd">
        <rect id="Rectangle" fill="#FFFFFF" fill-rule="nonzero" x="0" y="0" width="32" height="32" rx="6"></rect>
        <path d="M12.0427307,9.94476828 L10.7134065,12.5979107 C11.7802023,13.316658 12.7214411,14.1925467 13.5184649,15.0684354 L14.9592978,12.1805954 C15.0773916,11.9353015 15.3206035,11.7801891 15.5868634,11.7801891 L16.1663575,11.7801891 C16.4328369,11.7801891 16.6760488,11.9353015 16.7941426,12.1805954 L18.2016107,14.9989956 C19.0616325,14.0935724 20.0167001,13.2943381 21.045741,12.6143689 L19.7080756,9.94476828 C18.7903239,8.11340561 17.9393018,7.66971217 16.6898776,7.49182898 C16.4708113,7.46071633 16.128383,7.43817094 15.8752934,7.43817094 C15.6224233,7.43817094 15.279995,7.46071633 15.0609287,7.49182898 C13.4414185,7.72269386 12.7506353,8.53184819 12.0427307,9.94476828 Z M15.8535624,18.1474604 C16.2574522,17.4467495 16.7059015,16.7816602 17.1971544,16.1578291 L15.8766104,13.4127014 L14.513263,16.2468834 C15.074977,16.963827 15.52628,17.6293672 15.8535624,18.1474604 Z M9.44400732,13.4823667 L9.15667487,13.311698 C8.99446044,13.2154292 8.93453549,13.0053061 9.02014256,12.8341865 L10.7976966,9.28666812 L10.7979161,9.28666812 C11.6526698,7.58065785 12.6720524,6.38011541 14.8688616,6.06741074 C15.1520234,6.02705448 15.5563522,6 15.8752934,6 C16.1944541,6 16.5987829,6.02705448 16.8819448,6.06741074 C19.0787539,6.38011541 20.0981366,7.58065785 20.9528903,9.28666812 L22.2565323,11.8879561 C24.392758,10.7293481 26.7853659,10.0536626 29.2758731,9.96844095 C29.705884,9.95378644 30.0625801,10.3447236 29.9899239,10.8080316 C29.9354866,11.1536525 29.6286181,11.3946628 29.2879459,11.4070628 C23.9642836,11.6023059 19.1294596,14.7406253 16.663537,19.6050204 C16.6582689,19.6156167 16.6516837,19.6248604 16.6457571,19.6345549 C16.6464156,19.6350058 16.6466351,19.6352312 16.6470741,19.6356822 C16.6411474,19.6462785 16.6336843,19.6555221 16.6273186,19.6656675 C16.6191969,19.6785184 16.6112947,19.6913693 16.6025145,19.7033183 C16.43591,19.9438777 16.1656989,20.0906483 15.8768299,20.0906483 L15.8739764,20.0906483 C15.608375,20.0906483 15.3572609,19.9655213 15.1926319,19.7515655 L15.1035127,19.6354567 C14.5413596,18.6472919 12.4718636,15.2821658 9.44400732,13.4823667 Z M29.2657539,15.13898 C29.7001549,15.1173364 30.0590461,15.5048918 29.9918775,15.9704543 C29.9418303,16.3167516 29.6378154,16.5588891 29.2973627,16.5773764 C27.8931872,16.6531289 26.5076697,17.0639061 25.239368,17.7348571 C25.2650501,17.7835552 25.2922688,17.8358605 25.3234385,17.8949294 C25.7194261,18.6504257 26.4062582,19.9711351 27.3648379,21.8200832 C27.8727732,22.8003571 27.8797974,23.8070091 27.3837154,24.655167 C26.913974,25.4591359 26.0291481,25.9990982 25.1822966,25.9990982 C25.1822966,25.9990982 23.8479238,26 23.7976571,26 C22.7631286,26 21.2948576,25.9035057 20.4095927,23.6796276 L20.1815266,23.1078763 C19.8555613,23.6047769 19.5034747,24.0955902 19.1768508,24.5408618 C18.1298105,25.9677601 16.9256044,26 15.9441961,26 L15.8056883,26 C14.8251581,26 13.6209519,25.9679855 12.5741311,24.5408618 C12.2299468,24.0716921 11.9110056,23.5880933 11.6034786,23.1103563 L11.3341456,23.697664 C10.4480027,25.9039566 8.98499976,26 7.9531053,26 C7.90283858,26 6.5684658,25.9990982 6.5684658,25.9990982 C5.72161431,25.9990982 4.83678841,25.4591359 4.36704704,24.655167 C3.87118455,23.8070091 3.87798921,22.8003571 4.3859245,21.8200832 L5.67354265,19.3367076 L5.67354265,19.3364822 L6.97433112,16.8276303 C7.06608434,16.6506489 7.28098004,16.5823364 7.45175517,16.6797325 C8.75868979,17.4253088 10.7221648,19.0237775 12.5054259,21.9014721 C12.8924138,22.5264305 13.2741335,23.1056218 13.6922911,23.675344 C14.3435634,24.5631818 14.9856164,24.5627309 15.8748325,24.5618291 C16.764268,24.56228 17.4074185,24.5629563 18.0586908,23.675344 C18.5776013,22.9678694 19.163022,22.144286 19.5680093,21.4025424 C21.538289,17.7932497 25.3449501,15.3344486 29.2657539,15.13898 Z M26.1288035,22.4959942 C24.9114271,20.1476656 24.3222748,19.0179157 24.0371374,18.4745716 C22.8735398,19.2999586 21.8585472,20.3595923 21.0907176,21.5939529 L21.7053325,23.1349308 C22.2762658,24.5690436 22.9738537,24.5661127 23.938799,24.5613782 L25.1822966,24.5609272 C25.4845554,24.5609272 25.9380534,24.334346 26.1834603,23.9147761 C26.4229406,23.5053517 26.4045022,23.0278402 26.1288035,22.4959942 Z M10.0454299,23.1353817 C10.048942,23.1261381 10.5110007,22.1181334 10.6988972,21.7089344 C9.90055641,20.5079411 9.03438846,19.3817984 7.7298684,18.4301572 L6.90957705,20.0123932 C6.90957705,20.0123932 6.90957705,20.0126187 6.90935755,20.0126187 L5.6219589,22.4962197 C5.34626023,23.0278402 5.32782179,23.5053517 5.56730208,23.9147761 C5.81270902,24.334346 6.26620699,24.5609272 6.5684658,24.5609272 L7.81196338,24.5613782 C8.77800626,24.5661127 9.47449661,24.5690436 10.0454299,23.1353817 Z" id="logo_symbol" fill="#6600F0"></path>
    </g>
</svg>