<?xml version="1.0" encoding="UTF-8"?>
<svg width="230px" height="184px" viewBox="0 0 160 184" version="1.1" xmlns="http://www.w3.org/2000/svg" xmlns:xlink="http://www.w3.org/1999/xlink">
    <title>97048776-5E17-4DE1-A615-AC5EA48696E4</title>
    <g id="Page-1" stroke="none" stroke-width="1" fill="none" fill-rule="evenodd">
        <g id="Add-Ons----Additional-Storage" transform="translate(-1214.000000, -476.000000)">
            <g id="cover-image-copy-2" transform="translate(846.000000, 424.000000)">
                <g id="desk-app" transform="translate(368.000000, 53.000000)">
                    <polyline id="Path" stroke="#000000" stroke-width="0.75" points="151.3 178.1 147.3 137.8 94.8 137.8 91.9 167.1"></polyline>
                    <polygon id="Path" stroke="#000000" stroke-width="0.75" fill="#000000" fill-rule="nonzero" points="94.8 137.8 93 155.6 148.2 146 147.4 137.8"></polygon>
                    <rect id="Rectangle" stroke="#000000" stroke-width="0.75" x="145.7" y="178.1" width="24" height="3.6"></rect>
                    <g id="Group" transform="translate(13.000000, 0.000000)" stroke="#000000" stroke-width="0.75">
                        <path d="M205.2,138 L12,138 C5.5,138 0.6,132.3 1,125.3 L8.2,10.6 C8.6,4.7 13.7,0 19.6,0 L197.7,0 C203.6,0 208.7,4.7 209.1,10.6 L216.3,125.3 C216.7,132.3 211.8,138 205.2,138 Z" id="Path"></path>
                        <polygon id="Path" fill="#000000" fill-rule="nonzero" points="215.7 116 1.6 116 8.2 11.4 209.1 11.4"></polygon>
                    </g>
                    <path d="M196.2,101.6 L202.5,105.7 C203.4,106.3 202.9,107.5 201.8,107.5 L41.4,107.5 C40.3,107.5 39.9,106.3 40.7,105.7 L47,101.6" id="Path" stroke="#D6D1E7"></path>
                    <path d="M138.2,102.4 L105.1,102.4 C99.4,102.4 94.8,97.8 94.8,92.1 L94.8,59 C94.8,53.3 99.4,48.7 105.1,48.7 L138.2,48.7 C143.9,48.7 148.5,53.3 148.5,59 L148.5,92.1 C148.5,97.8 143.9,102.4 138.2,102.4 Z" id="Path" fill="#D6D1E7" fill-rule="nonzero"></path>
                    <path d="M57.8,103 L56.4,103 C51.2,103 46.9,98.7 46.9,93.5 L46.9,92.1 C46.9,86.9 51.2,82.6 56.4,82.6 L57.8,82.6 C63,82.6 67.3,86.9 67.3,92.1 L67.3,93.5 C67.3,98.8 63,103 57.8,103 Z" id="Path" fill="#D6D1E7" fill-rule="nonzero"></path>
                    <path d="M180.1,82.7 L189.6,82.7 C192.6,82.7 195,85.1 195,88.1 L195,97.6 C195,100.6 192.6,103 189.6,103 L180.1,103 C177.1,103 174.7,100.6 174.7,97.6 L174.7,88.1 C174.7,85.1 177.1,82.7 180.1,82.7 Z" id="Path" fill="#D6D1E7" fill-rule="nonzero"></path>
                    <path d="M76.1,101.5 L71.6,97 C68.9,94.3 68.9,89.8 71.6,87.1 L76,82.7 C78.7,80 83.2,80 85.9,82.7 L90.3,87.1 C93,89.8 93,94.3 90.3,97 L85.9,101.4 C83.3,104.2 78.8,104.2 76.1,101.5 Z" id="Path" fill="#D6D1E7" fill-rule="nonzero"></path>
                    <path d="M161.4,82.7 L161.4,82.7 C167,82.7 171.6,87.3 171.6,92.9 L171.6,92.9 C171.6,98.5 167,103.1 161.4,103.1 L161.4,103.1 C155.8,103.1 151.2,98.5 151.2,92.9 L151.2,92.9 C151.2,87.2 155.8,82.7 161.4,82.7 Z" id="Path" fill="#D6D1E7" fill-rule="nonzero"></path>
                    <g id="Group_247_2_" transform="translate(102.398000, 58.343000)" fill="#000000" fill-rule="nonzero">
                        <g id="Group_123_2_" transform="translate(0.602000, 0.657000)">
                            <path d="M11.2,23.9 L10.1,26.1 C8.3,24.6 6.4,23.2 4.4,22 L6,18.7 C8.1,20.2 9.8,21.9 11.2,23.9 Z M32.5,22.1 C30.5,23.2 28.5,24.5 26.8,26.1 C25.8,25.1 25.5,24.3 25.9,23.8 C27.2,22 28.8,20.4 30.6,19.2 C30.9,18.9 31.6,19.9 32.5,22.1 L32.5,22.1 Z" id="Path_84_2_" opacity="0.175"></path>
                            <path d="M9.8,26.1 L10.8,24 C9.6,22.1 8.1,20.5 6.4,19.1 L5.2,21.4 L5.2,21.4 L3.3,25.1 C2.7,26 2.9,27.2 3.8,27.8 C4.1,28 4.4,28.1 4.8,28.1 L6.7,28.1 C7.9,28.2 9,28.2 9.8,26.1 Z M33.8,25.1 C32,21.6 31.1,19.9 30.7,19.1 C28.9,20.3 27.4,21.9 26.3,23.7 L27.2,26 C28.1,28.1 29.1,28.1 30.5,28.1 L32.4,28.1 C33.5,28 34.2,27.1 34.1,26 C34.1,25.8 34,25.4 33.8,25.1 L33.8,25.1 Z M38.5,14.2 C39.1,14.2 39.6,14.6 39.6,15.2 L39.6,15.2 C39.6,15.3 39.6,15.4 39.6,15.4 C39.5,15.9 39.1,16.3 38.6,16.3 C36.5,16.4 34.4,17 32.5,18 L32.6,18.2 C33.2,19.3 34.2,21.3 35.6,24 C36.4,25.3 36.4,26.9 35.6,28.2 C34.9,29.4 33.7,30.1 32.3,30.2 L30.2,30.2 C27.9,30.4 25.8,29 25.1,26.8 L24.8,26 C24.3,26.7 23.8,27.5 23.3,28.1 C22.2,29.6 20.4,30.5 18.5,30.3 L18.3,30.3 C16.4,30.5 14.6,29.7 13.5,28.1 C13,27.4 12.5,26.7 12.1,26 L11.7,26.9 C11.1,29.1 8.9,30.5 6.7,30.3 L4.6,30.3 C3.2,30.2 2,29.5 1.3,28.3 C0.6,27 0.6,25.4 1.3,24.1 L3.2,20.4 L3.2,20.4 L5.1,16.7 C5.2,16.4 5.5,16.3 5.8,16.5 C5.8,16.5 5.8,16.5 5.8,16.5 L5.8,16.5 C8.9,18.4 11.5,21.1 13.3,24.3 C13.9,25.2 14.4,26.1 15.1,26.9 C16.9,28.7 19.8,28.7 21.6,26.9 C22.4,25.8 23.2,24.7 23.9,23.5 C26.9,18.2 32.4,14.7 38.5,14.2 L38.5,14.2 Z M8.9,11.8 L8.5,11.6 C8.3,11.5 8.2,11.1 8.3,10.9 L11,5.6 L11,5.6 C12.3,3.1 13.8,1.3 17.1,0.8 C18.1,0.7 19.1,0.7 20.1,0.8 C23.4,1.3 24.9,3 26.2,5.6 L28.1,9.5 C31.3,7.8 34.9,6.8 38.6,6.7 C39.2,6.7 39.7,7.1 39.7,7.7 C39.7,7.7 39.7,7.7 39.7,7.7 L39.7,7.7 C39.7,7.8 39.7,7.8 39.7,7.9 C39.6,8.4 39.2,8.8 38.7,8.8 C30.7,9.1 23.5,13.8 19.9,21 C19.9,21 19.9,21 19.9,21 L19.9,21 C19.9,21 19.9,21 19.9,21 C19.9,21 19.9,21 19.9,21.1 C19.7,21.5 19.2,21.7 18.8,21.7 L18.8,21.7 C18.4,21.7 18,21.5 17.8,21.2 L17.7,21 C16.5,19.4 13.4,14.4 8.9,11.8 L8.9,11.8 Z M18.5,18.7 C19.1,17.7 19.8,16.7 20.5,15.7 L18.5,11.6 L16.5,15.8 C17.2,16.8 17.9,17.7 18.5,18.7 L18.5,18.7 Z M12.8,6.5 L10.8,10.4 C12.3,11.5 13.7,12.7 15,14.1 L17.2,9.8 C17.4,9.4 17.7,9.2 18.1,9.2 L19,9.2 C19.4,9.2 19.8,9.4 19.9,9.8 L22,14 C23.3,12.7 24.7,11.5 26.2,10.5 L24.2,6.5 C22.8,3.8 21.6,3.1 19.7,2.9 C18.9,2.8 18.1,2.8 17.3,2.9 C14.9,3.2 13.9,4.4 12.8,6.5 L12.8,6.5 Z" id="Path_85_2_"></path>
                        </g>
                    </g>
                    <polygon id="Path" stroke="#D6D1E7" stroke-width="0.75" fill="#000000" fill-rule="nonzero" points="142.6 82.9 156.4 101.3 157.4 94.8 164.5 99.4 166.2 96.9 159.2 92.1 164.8 88.7"></polygon>
                    <line x1="219.8" y1="181.7" x2="8.4" y2="181.7" id="Path" stroke="#000000" stroke-width="0.75"></line>
                    <polyline id="Path" stroke="#000000" stroke-width="0.75" points="135.5 178.7 145.7 168.4 145.7 181.7 0.7 181.7 0.7 177.8 11.8 168.9 12.2 168.9"></polyline>
                    <rect id="Rectangle" stroke="#000000" stroke-width="0.75" x="0.7" y="178.1" width="134.8" height="3.6"></rect>
                    <line x1="7.7" y1="175.2" x2="12.6" y2="175.2" id="Path" stroke="#000000" stroke-width="0.75" fill="#D6D1E7" fill-rule="nonzero"></line>
                    <line x1="16.4" y1="175.2" x2="21.4" y2="175.2" id="Path" stroke="#000000" stroke-width="0.75" fill="#D6D1E7" fill-rule="nonzero"></line>
                    <line x1="11.2" y1="172.1" x2="16.2" y2="172.1" id="Path" stroke="#000000" stroke-width="0.75" fill="#D6D1E7" fill-rule="nonzero"></line>
                    <line x1="20" y1="172.1" x2="24.9" y2="172.1" id="Path" stroke="#000000" stroke-width="0.75" fill="#D6D1E7" fill-rule="nonzero"></line>
                    <line x1="28.7" y1="172.1" x2="33.7" y2="172.1" id="Path" stroke="#000000" stroke-width="0.75" fill="#D6D1E7" fill-rule="nonzero"></line>
                    <line x1="37.5" y1="172.1" x2="42.4" y2="172.1" id="Path" stroke="#000000" stroke-width="0.75" fill="#D6D1E7" fill-rule="nonzero"></line>
                    <line x1="46.2" y1="172.1" x2="51.2" y2="172.1" id="Path" stroke="#000000" stroke-width="0.75" fill="#D6D1E7" fill-rule="nonzero"></line>
                    <line x1="54.9" y1="172.1" x2="59.9" y2="172.1" id="Path" stroke="#000000" stroke-width="0.75" fill="#D6D1E7" fill-rule="nonzero"></line>
                    <line x1="63.7" y1="172.1" x2="68.6" y2="172.1" id="Path" stroke="#000000" stroke-width="0.75" fill="#D6D1E7" fill-rule="nonzero"></line>
                    <line x1="72.4" y1="172.1" x2="77.4" y2="172.1" id="Path" stroke="#000000" stroke-width="0.75" fill="#D6D1E7" fill-rule="nonzero"></line>
                    <line x1="81.1" y1="172.1" x2="86.1" y2="172.1" id="Path" stroke="#000000" stroke-width="0.75" fill="#D6D1E7" fill-rule="nonzero"></line>
                    <line x1="89.9" y1="172.1" x2="94.8" y2="172.1" id="Path" stroke="#000000" stroke-width="0.75" fill="#D6D1E7" fill-rule="nonzero"></line>
                    <line x1="98.6" y1="172.1" x2="103.6" y2="172.1" id="Path" stroke="#000000" stroke-width="0.75" fill="#D6D1E7" fill-rule="nonzero"></line>
                    <line x1="107.4" y1="172.1" x2="112.3" y2="172.1" id="Path" stroke="#000000" stroke-width="0.75" fill="#D6D1E7" fill-rule="nonzero"></line>
                    <line x1="116.1" y1="172.1" x2="121.1" y2="172.1" id="Path" stroke="#000000" stroke-width="0.75" fill="#D6D1E7" fill-rule="nonzero"></line>
                    <line x1="124.8" y1="172.1" x2="129.8" y2="172.1" id="Path" stroke="#000000" stroke-width="0.75" fill="#D6D1E7" fill-rule="nonzero"></line>
                    <line x1="133.6" y1="172.1" x2="138.5" y2="172.1" id="Path" stroke="#000000" stroke-width="0.75" fill="#D6D1E7" fill-rule="nonzero"></line>
                    <line x1="14.8" y1="168.9" x2="19.8" y2="168.9" id="Path" stroke="#000000" stroke-width="0.75" fill="#D6D1E7" fill-rule="nonzero"></line>
                    <line x1="23.6" y1="168.9" x2="28.5" y2="168.9" id="Path" stroke="#000000" stroke-width="0.75" fill="#D6D1E7" fill-rule="nonzero"></line>
                    <line x1="32.3" y1="168.9" x2="37.3" y2="168.9" id="Path" stroke="#000000" stroke-width="0.75" fill="#D6D1E7" fill-rule="nonzero"></line>
                    <line x1="41" y1="168.9" x2="46" y2="168.9" id="Path" stroke="#000000" stroke-width="0.75" fill="#D6D1E7" fill-rule="nonzero"></line>
                    <line x1="49.8" y1="168.9" x2="54.7" y2="168.9" id="Path" stroke="#000000" stroke-width="0.75" fill="#D6D1E7" fill-rule="nonzero"></line>
                    <line x1="58.5" y1="168.9" x2="63.5" y2="168.9" id="Path" stroke="#000000" stroke-width="0.75" fill="#D6D1E7" fill-rule="nonzero"></line>
                    <line x1="67.2" y1="168.9" x2="72.2" y2="168.9" id="Path" stroke="#000000" stroke-width="0.75" fill="#D6D1E7" fill-rule="nonzero"></line>
                    <line x1="76" y1="168.9" x2="80.9" y2="168.9" id="Path" stroke="#000000" stroke-width="0.75" fill="#D6D1E7" fill-rule="nonzero"></line>
                    <line x1="84.7" y1="168.9" x2="89.7" y2="168.9" id="Path" stroke="#000000" stroke-width="0.75" fill="#D6D1E7" fill-rule="nonzero"></line>
                    <line x1="93.5" y1="168.9" x2="98.4" y2="168.9" id="Path" stroke="#000000" stroke-width="0.75" fill="#D6D1E7" fill-rule="nonzero"></line>
                    <line x1="102.2" y1="168.9" x2="107.2" y2="168.9" id="Path" stroke="#000000" stroke-width="0.75" fill="#D6D1E7" fill-rule="nonzero"></line>
                    <line x1="110.9" y1="168.9" x2="115.9" y2="168.9" id="Path" stroke="#000000" stroke-width="0.75" fill="#D6D1E7" fill-rule="nonzero"></line>
                    <line x1="119.7" y1="168.9" x2="124.6" y2="168.9" id="Path" stroke="#000000" stroke-width="0.75" fill="#D6D1E7" fill-rule="nonzero"></line>
                    <line x1="128.4" y1="168.9" x2="133.4" y2="168.9" id="Path" stroke="#000000" stroke-width="0.75" fill="#D6D1E7" fill-rule="nonzero"></line>
                    <line x1="137.1" y1="168.9" x2="142.1" y2="168.9" id="Path" stroke="#000000" stroke-width="0.75" fill="#D6D1E7" fill-rule="nonzero"></line>
                    <line x1="25.1" y1="175.2" x2="30.1" y2="175.2" id="Path" stroke="#000000" stroke-width="0.75" fill="#D6D1E7" fill-rule="nonzero"></line>
                    <line x1="33.9" y1="175.2" x2="38.8" y2="175.2" id="Path" stroke="#000000" stroke-width="0.75" fill="#D6D1E7" fill-rule="nonzero"></line>
                    <line x1="47.5" y1="175.2" x2="103.9" y2="175.2" id="Path" stroke="#000000" stroke-width="0.75" fill="#D6D1E7" fill-rule="nonzero"></line>
                    <line x1="112.5" y1="175.2" x2="117.5" y2="175.2" id="Path" stroke="#000000" stroke-width="0.75" fill="#D6D1E7" fill-rule="nonzero"></line>
                    <line x1="121.3" y1="175.2" x2="126.2" y2="175.2" id="Path" stroke="#000000" stroke-width="0.75" fill="#D6D1E7" fill-rule="nonzero"></line>
                    <line x1="129.4" y1="175.2" x2="134.4" y2="175.2" id="Path" stroke="#000000" stroke-width="0.75" fill="#D6D1E7" fill-rule="nonzero"></line>
                    <path d="M175.7,181.7 C175.7,181.7 178.9,174.7 191.1,172.1 C206.4,168.8 219.3,177.8 215.4,181.7 L175.7,181.7 Z" id="Path" stroke="#000000" stroke-width="0.75"></path>
                    <path d="M215.8,178.8 C215.8,178.8 210.1,182.3 201,179.9 C191.9,177.5 184.5,175.1 178.2,178.4 L176,181.1 L215.4,181.6 L215.8,178.8 Z" id="Path" fill="#000000" fill-rule="nonzero"></path>
                </g>
            </g>
        </g>
    </g>
</svg>
