<?xml version="1.0" encoding="UTF-8"?>
<svg width="14px" height="14px" viewBox="0 0 14 14" version="1.1" xmlns="http://www.w3.org/2000/svg" xmlns:xlink="http://www.w3.org/1999/xlink">
    <title>applause</title>
    <g id="applause" stroke="none" stroke-width="1" fill="none" fill-rule="evenodd">
        <path d="M8.24676562,7.53285305 L4.74586239,4.49146595 C4.74586239,4.49146595 3.80583014,3.70836918 2.91976562,4.6578853 C2.72331401,4.86833692 2.63231401,5.09256272 2.58105594,5.28878853 C2.4604753,5.74943369 2.65399143,6.23604659 3.02724949,6.53162724 L6.63631401,9.39101434 L4.14860433,7.41836918 C4.14860433,7.41836918 3.50166885,6.90759498 2.82379788,7.58930466 C2.27486239,8.14140143 2.07705594,8.79511111 3.0904753,9.66220789 L6.66928175,12.6692724 C6.66928175,12.6692724 10.51356,15.3700798 13.0435721,11.8369498 C14.4048999,9.93587273 13.1659592,10.0309498 13.495185,5.03475627 C13.495185,5.03475627 13.4859269,3.90594982 12.2722172,3.90594982 C11.0585076,3.90594982 11.2371205,6.72830466 11.2371205,6.72830466 L6.79212046,3.1526595 C6.79212046,3.1526595 5.87579788,2.40998208 5.19205594,3.1526595 C4.34731401,4.0698853 5.28237852,4.92546595 5.28237852,4.92546595 L8.24676562,7.53285305 Z" id="Stroke-4-Copy" stroke="#000000" stroke-width="0.677419355" fill="#FFD60B"></path>
        <path d="M6.21450756,5.81672401 L2.71360433,2.77533692 C2.71360433,2.77533692 1.77357207,1.99224014 0.887507555,2.94175627 C0.691055942,3.15220789 0.600055942,3.37643369 0.548797878,3.5726595 C0.428217232,4.03330466 0.621733361,4.51991756 0.994991426,4.81549821 L4.60405594,7.6748853 L2.11634626,5.70224014 C2.11634626,5.70224014 1.46941078,5.19146595 0.791539813,5.87317563 C0.242604329,6.4252724 0.0447978776,7.07898208 1.05821723,7.94607885 L4.63702368,10.9531434 C4.63702368,10.9531434 8.48130193,13.6539508 11.011314,10.1208208 C12.3726418,8.21974369 11.1337011,8.31482079 11.4629269,3.31862724 C11.4629269,3.31862724 11.4536688,2.18982079 10.2399592,2.18982079 C9.02624949,2.18982079 9.20486239,5.01217563 9.20486239,5.01217563 L4.75986239,1.43653047 C4.75986239,1.43653047 3.84353981,0.693853047 3.15979788,1.43653047 C2.31505594,2.35375627 3.25012046,3.20933692 3.25012046,3.20933692 L6.21450756,5.81672401 Z" id="Stroke-4-Copy-2" fill="#975F00"></path>
        <path d="M8.24676562,7.53285305 L4.74586239,4.49146595 C4.74586239,4.49146595 3.80583014,3.70836918 2.91976562,4.6578853 C2.72331401,4.86833692 2.63231401,5.09256272 2.58105594,5.28878853 C2.4604753,5.74943369 2.65399143,6.23604659 3.02724949,6.53162724 L6.63631401,9.39101434 L4.14860433,7.41836918 C4.14860433,7.41836918 3.50166885,6.90759498 2.82379788,7.58930466 C2.27486239,8.14140143 2.07705594,8.79511111 3.0904753,9.66220789 L6.66928175,12.6692724 C6.66928175,12.6692724 10.51356,15.3700798 13.0435721,11.8369498 C14.4048999,9.93587273 13.1659592,10.0309498 13.495185,5.03475627 C13.495185,5.03475627 13.4859269,3.90594982 12.2722172,3.90594982 C11.0585076,3.90594982 11.2371205,6.72830466 11.2371205,6.72830466 L6.79212046,3.1526595 C6.79212046,3.1526595 5.87579788,2.40998208 5.19205594,3.1526595 C4.34731401,4.0698853 5.28237852,4.92546595 5.28237852,4.92546595 L8.24676562,7.53285305 Z" id="Stroke-4-Copy" stroke="#975F00" stroke-width="0.677419355" fill="#FFD60B"></path>
        <line x1="10.3870968" y1="1.12903226" x2="10.3870968" y2="0.338709677" id="Stroke-8" stroke="#29ABE2" stroke-width="0.677419355" stroke-linecap="round" transform="translate(10.387097, 0.733871) rotate(180.000000) translate(-10.387097, -0.733871) "></line>
        <line x1="12.4193548" y1="1.80645161" x2="12.4193548" y2="0.338709677" id="Stroke-8" stroke="#29ABE2" stroke-width="0.677419355" stroke-linecap="round" transform="translate(12.419355, 1.072581) rotate(45.000000) translate(-12.419355, -1.072581) "></line>
        <line x1="8.35483871" y1="1.80645161" x2="8.35483871" y2="0.338709677" id="Stroke-8" stroke="#29ABE2" stroke-width="0.677419355" stroke-linecap="round" transform="translate(8.354839, 1.072581) scale(-1, 1) rotate(45.000000) translate(-8.354839, -1.072581) "></line>
    </g>
</svg>