<?xml version="1.0" encoding="UTF-8"?>
<svg width="14px" height="14px" viewBox="0 0 14 14" version="1.1" xmlns="http://www.w3.org/2000/svg" xmlns:xlink="http://www.w3.org/1999/xlink">
    <title>party</title>
    <g id="party" stroke="none" stroke-width="1" fill="none" fill-rule="evenodd">
        <path d="M6.77419355,3.0483871 C6.77419355,3.0483871 7.67741935,0.338709677 4.06451613,0.338709677" id="Stroke-5" stroke="#ED1C24" stroke-width="0.645129032"></path>
        <path d="M10.9516129,6.87455197 C10.9516129,6.87455197 13.6612903,5.97132616 13.6612903,9.58422939" id="Stroke-6" stroke="#00A4FF" stroke-width="0.645129032"></path>
        <path d="M9.70967742,3.83870968 C9.70967742,3.83870968 11.516129,4.74193548 11.516129,2.93548387 C11.516129,2.03225806 12.4193548,2.03225806 12.4193548,2.03225806 C12.4193548,2.03225806 14.2258065,2.03225806 13.3225806,0.225806452" id="Stroke-7" stroke="#ED1C24" stroke-width="0.645129032"></path>
        <path d="M2.93548387,2.48387097 C2.56154839,2.48387097 2.25806452,2.1803871 2.25806452,1.80645161 C2.25806452,1.43251613 2.56154839,1.12903226 2.93548387,1.12903226 C3.30941935,1.12903226 3.61290323,1.43251613 3.61290323,1.80645161 C3.61290323,2.1803871 3.30941935,2.48387097 2.93548387,2.48387097" id="Fill-8" fill="#BF0FCE"></path>
        <polygon id="Fill-11" fill="#BF0FCE" points="13.5542806 4.80035161 13.1028935 5.03812581 13.042829 5.54460968 12.6772484 5.18896452 12.1766355 5.28831935 12.4022161 4.83060968 12.1531516 4.38554516 12.6580548 4.45848065 13.0042161 4.08386774 13.0909258 4.58673871"></polygon>
        <polygon id="Fill-12" fill="#00A4FF" points="9.05777419 0.359754839 8.75745161 0.802109677 8.95141935 1.30046452 8.43793548 1.15143226 8.02403226 1.48991613 8.00709677 0.955432258 7.55706452 0.6664 8.06016129 0.485077419 8.19609677 -0.0320193548 8.52396774 0.390464516"></polygon>
        <path d="M11.9504903,10.0403258 C11.9504903,10.0403258 12.3616839,10.9747129 13.7569419,11.8467774" id="Stroke-13" stroke="#ED1C24" stroke-width="0.645129032"></path>
        <path d="M9.42184194,2.70459677 C9.42184194,2.70459677 9.55642258,1.26101613 10.9598097,0.908758065" id="Stroke-14" stroke="#00A4FF" stroke-width="0.645129032"></path>
        <path d="M10.4165871,13.0194581 C10.4165871,13.0194581 10.904329,12.0740065 12.0333613,12.6653935" id="Stroke-15" stroke="#00A4FF" stroke-width="0.645129032"></path>
        <g id="Group-14-Copy" transform="translate(4.379214, 9.984542) rotate(-315.000000) translate(-4.379214, -9.984542) translate(-0.620786, 3.484542)">
            <polygon id="Rectangle-Copy" fill="#FFD60B" points="7.70116274e-13 1.80645161 9.48387097 1.80645161 4.74193548 12.4193548"></polygon>
            <path d="M8.80645161,1.80645161 L4.74193548,12.4193548 L3.96905702,10.4022828 L7.26005702,1.80628283 L8.80645161,1.80645161 Z" id="Combined-Shape" fill="#FFB000"></path>
            <path d="M8.96155073,2.14516129 L4.74193548,11.5890621 L0.522320235,2.14516129 L8.96155073,2.14516129 Z" id="Rectangle-Copy" stroke="#975F00" stroke-width="0.677419355"></path>
            <ellipse id="Oval" stroke="#975F00" stroke-width="0.677419355" fill="#FFFFFF" cx="4.74193548" cy="1.58064516" rx="4.40322581" ry="1.24193548"></ellipse>
        </g>
    </g>
</svg>