<?xml version="1.0" encoding="UTF-8"?>
<svg width="14px" height="14px" viewBox="0 0 14 14" version="1.1" xmlns="http://www.w3.org/2000/svg" xmlns:xlink="http://www.w3.org/1999/xlink">
    <title>thinking</title>
    <g id="thinking" stroke="none" stroke-width="1" fill="none" fill-rule="evenodd">
        <circle id="Oval" fill="#FFD60B" cx="7" cy="7" r="7"></circle>
        <rect id="Rectangle" fill="#000000" fill-rule="nonzero" x="6" y="4" width="2" height="2" rx="1"></rect>
        <rect id="Rectangle" fill="#000000" fill-rule="nonzero" x="10" y="5" width="2" height="2" rx="1"></rect>
        <path d="M7,0 C10.8659932,0 14,3.13400675 14,7 C14,10.8659932 10.8659932,14 7,14 C3.13400675,14 0,10.8659932 0,7 C0,6.88348644 0.002846628,6.76763774 0.00847412991,6.65251966 C0.180149196,9.99108509 2.94141857,12.6451613 6.32258065,12.6451613 C9.81444551,12.6451613 12.6451613,9.81444551 12.6451613,6.32258065 C12.6451613,2.94141857 9.99108509,0.180149196 6.65262635,0.00846618821 C6.76763774,0.002846628 6.88348644,0 7,0 Z" id="Path" fill="#FFB000"></path>
        <path d="M7,7.1942452e-14 C9.27848142,7.1942452e-14 11.3027064,1.088601 12.5809415,2.77406941 C11.406434,1.88329818 9.94235054,1.35483871 8.35483871,1.35483871 C4.48884546,1.35483871 1.35483871,4.48884546 1.35483871,8.35483871 C1.35483871,9.94235054 1.88329818,11.406434 2.77389719,12.5807693 C1.088601,11.3027064 3.64153152e-13,9.27848142 3.64153152e-13,7 C3.64153152e-13,3.13400675 3.13400675,7.1942452e-14 7,7.1942452e-14 Z" id="Path" fill="#FFEB97"></path>
        <circle id="Oval" stroke="#975F00" stroke-width="0.677419355" cx="7" cy="7" r="6.66129032"></circle>
        <polygon id="Path" fill="#FFFFFF" points="2 14 2 7 4.96774194 7 4.96774194 9.25783871 10 9.25806452 10 11.7419355 7.68663011 11.7417097 7.68685592 14"></polygon>
        <rect id="Rectangle" fill="#CCCCCC" x="2" y="12" width="5.11317147" height="2"></rect>
        <path d="M4.59274194,7.375 L4.59274194,9.63282188 L9.625,9.63304769 L9.625,11.3668972 L7.41501293,11.3666714 L7.41523874,13.625 L2.375,13.625 L2.375,7.375 L4.59274194,7.375 Z" id="Path" stroke="#5A3900" stroke-width="0.75"></path>
        <path d="M6.20564516,7.70990681 C6.20564516,7.70990681 9.53222581,6.86313262 10.8629032,8.556681" id="Stroke-7-Copy" stroke="#000000"></path>
        <rect id="Rectangle" fill="#000000" fill-rule="nonzero" x="10" y="3" width="2" height="1"></rect>
        <rect id="Rectangle" fill="#000000" fill-rule="nonzero" x="6" y="2" width="2" height="1"></rect>
    </g>
</svg>