<?xml version="1.0" encoding="UTF-8"?>
<svg width="14px" height="14px" viewBox="0 0 14 14" version="1.1" xmlns="http://www.w3.org/2000/svg" xmlns:xlink="http://www.w3.org/1999/xlink">
    <title>thumbs_up</title>
    <g id="thumbs_up" stroke="none" stroke-width="1" fill="none" fill-rule="evenodd">
        <g id="Group">
            <path d="M7,2.70967742 C7,4.47729032 5.3076956,4.86590323 4.51642623,5.87096774 C4.02896997,6.49012903 3.83870968,7.67741935 3.83870968,7.67741935 L3.83870968,12.8709677 C5.18226383,13.3415484 6.09585144,14 8.80645161,14 C10.9696726,13.9788799 11.3463496,13.9545816 12.1935484,13.0967742 C13.0970818,12.1935484 14,8.70664516 14,6.77419355 C14,6.62380645 13.9598593,6.45151613 13.9192003,6.26003226 C13.7215523,5.32609677 12.5185993,5.13145161 11.516129,5.13145161 C10.7982718,5.13145161 10.1148729,5.24164516 10.0925105,5.24164516 C9.87905071,5.24164516 9.77808085,4.94245161 9.86707889,4.71370968 C10.1333954,4.03041935 10.1612903,2.95919355 10.1612903,1.80645161 C10.1612903,0 8.58064516,0 8.58064516,0 C8.58064516,0 7,0 7,2.70967742 Z" id="Path" fill="#FFD60B"></path>
            <path d="M4.12235859,12.7631 L5.63826042,13.5483871 L8.2034711,13.8870968 L10.1880831,13.8870968 L11.798244,13.0656212 L13.2670099,8.96062187 L13.2670099,7.48446751 C12.7086593,10.2441537 11.769383,11.8138473 10.4491809,12.1935484 C9.12897882,12.5732495 7.04071635,12.3393434 4.18439349,11.4918301 L4.12235859,12.7631 Z" id="Path-3" fill="#FFB000"></path>
            <path d="M4.51612903,6.47286349 L6.17471343,5.05731228 L7.14173735,3.56173486 L7.50748443,1.14338324 L8.69468423,0.341318626 L9.78342371,0.866028365 L9.64350635,2.19432663 C9.41194325,1.44580134 9.06601503,1.19277897 8.60572169,1.43525953 C7.91528168,1.79898038 8.80426434,4.6233284 6.95289115,5.56636941 C5.10151796,6.50941042 4.12235859,8.98577846 4.12235859,10.4016505 C4.12235859,10.9402596 4.12235859,9.93900682 4.12235859,7.39789207 L4.51612903,6.47286349 Z" id="Path-4" fill="#FFEB97"></path>
            <path d="M8.56943714,0.339828724 C8.72475124,0.347269427 9.18388272,0.395326671 9.50205838,0.764586384 C9.69227341,0.985341001 9.82258065,1.31849947 9.82258065,1.80645161 C9.82258065,2.90883558 9.80654143,3.93632663 9.55149241,4.59070797 C10.0701289,5.40607173 10.6443193,5.46725376 11.2652739,5.47036422 L11.516129,5.47016129 C12.0344634,5.47016129 12.6138923,5.51980181 13.0503782,5.72479344 C13.3060283,5.84485722 13.5121189,6.02216217 13.5816823,6.30350254 C13.650542,8.64866711 12.8206487,11.9909611 11.9525589,12.8587651 C11.1649014,13.6562856 10.7955725,13.6418539 8.80645161,13.6612903 C6.83797283,13.6612903 5.84804237,13.3033826 4.92762426,12.9319352 C4.56529131,12.7852905 4.34964531,12.6991038 4.17741935,12.633968 L4.17741935,12.633968 L4.17741935,7.70469629 C4.20578684,7.5356856 4.37852129,6.59368928 4.78255703,6.08048777 C5.02403156,5.77376861 5.35858046,5.53200753 5.69495832,5.28343109 C6.52440552,4.67048639 7.33870968,4.02336606 7.33870968,2.70967742 C7.33870968,1.89496464 7.48721222,1.34619245 7.69827787,0.980580165 C8.0096239,0.441260124 8.45664799,0.350778435 8.56943714,0.339828724 Z" id="Path" stroke="#975F00" stroke-width="0.677419355"></path>
            <rect id="Rectangle-Copy-4" stroke="#975F00" stroke-width="0.677419355" fill="#FFFFFF" x="0.338709677" y="6.33870968" width="3.83870968" height="7.32258065" rx="1.12903226"></rect>
            <path d="M0.677419355,11.516129 C0.677419355,11.765548 0.879613339,11.9677419 1.12903226,11.9677419 L1.12903226,11.9677419 L3.38709677,11.9677419 C3.63651569,11.9677419 3.83870968,11.765548 3.83870968,11.516129 L3.83870968,11.516129 L3.83870968,12.8709677 C3.83870968,13.1203867 3.63651569,13.3225806 3.38709677,13.3225806 L1.12903226,13.3225806 C0.879613339,13.3225806 0.677419355,13.1203867 0.677419355,12.8709677 Z" id="Combined-Shape" fill="#CCCCCC"></path>
        </g>
    </g>
</svg>