<?xml version="1.0" encoding="UTF-8"?>
<svg width="24px" height="24px" viewBox="0 0 24 24" version="1.1" xmlns="http://www.w3.org/2000/svg" xmlns:xlink="http://www.w3.org/1999/xlink">
    <title>badge-icon</title>
    <g id="badge-icon" stroke="none" stroke-width="1" fill="none" fill-rule="evenodd">
        <path d="M19.3333333,1 C21.3583774,1 23,2.64162258 23,4.66666667 L23,19.3333333 C23,21.3583774 21.3583774,23 19.3333333,23 L4.66666667,23 C2.64162258,23 1,21.3583774 1,19.3333333 L1,4.66666667 C1,2.64162258 2.64162258,1 4.66666667,1 L19.3333333,1 Z M21.1202058,10.9497154 C18.5176033,11.0794661 15.9881552,12.659795 14.5975891,15.0020721 L14.4530064,15.2559146 C14.1745776,15.7658633 13.7721009,16.3320769 13.4153499,16.8184657 C13.0364848,17.3348171 12.6616175,17.4139228 12.1847862,17.4258539 L11.775806,17.4277839 C11.2346643,17.4249783 10.8267576,17.3819012 10.4134501,16.8184657 C10.2217946,16.557343 10.0412728,16.293327 9.86338915,16.0190236 L9.59748031,15.5989287 C8.3714883,13.6205137 7.02159923,12.5215665 6.12308168,12.0089828 C6.02524176,11.9531829 5.90633733,11.9764974 5.83291548,12.0562325 L5.79485265,12.1106625 L4.01532309,15.5429739 C3.66611758,16.2169122 3.66143938,16.9089854 4.00234484,17.492094 C4.29837977,17.9987619 4.83420528,18.3529156 5.36990399,18.4084226 L5.51582024,18.4160467 L6.56191779,18.4162459 L6.75895164,18.4102236 C7.39913269,18.376532 8.17989124,18.1745206 8.71056905,17.0235438 L8.7922251,16.8338107 L8.97739154,16.4300366 C9.18881635,16.7584808 9.40808843,17.090955 9.64471513,17.4135092 C10.2797351,18.2792276 10.9989957,18.3982126 11.6225293,18.4142268 L12.0822396,18.4162459 C12.7333782,18.4107413 13.5065883,18.3367963 14.1840849,17.4135092 C14.3337875,17.2094263 14.4912704,16.991428 14.6460257,16.7675512 L14.8747995,16.4283316 L15.031595,16.8214106 C15.5608294,18.150903 16.3931389,18.3744775 17.0689099,18.4101823 L17.2664854,18.4162459 L17.2664854,18.4162459 L18.3128289,18.4160467 C18.8950393,18.4160467 19.5033571,18.0448226 19.8263043,17.492094 C20.1673607,16.9089854 20.1625316,16.2169122 19.8133261,15.5429739 L18.3520655,12.7343809 L18.3520655,12.7343809 C19.2240229,12.2731021 20.1765662,11.9906928 21.1419369,11.9386129 C21.3759981,11.9259029 21.5850083,11.7594334 21.6194158,11.521354 C21.6655942,11.2012798 21.4188565,10.9348354 21.1202058,10.9497154 Z M17.525532,13.2429346 L18.9635524,16.0076627 L18.9635524,16.0076627 C19.1530953,16.3733068 19.1657717,16.701596 19.001129,16.9830752 C18.8535014,17.2354728 18.5963415,17.3862874 18.3951464,17.4200473 L18.3128289,17.4273041 L17.2312578,17.4271048 C16.7171578,17.4182587 16.321045,17.3291303 15.9881652,16.6012004 L15.9224161,16.4469316 L15.4998684,15.3875093 C16.0277512,14.5388864 16.7255586,13.8103882 17.525532,13.2429346 Z M6.31428453,13.2123997 C7.21114207,13.8666531 7.80663253,14.6408762 8.35549183,15.4665591 L7.90623306,16.4472416 L7.90623306,16.4472416 C7.55989485,17.3169262 7.14635211,17.4176733 6.59759865,17.4271053 L5.51582024,17.4273041 C5.30801731,17.4273041 4.99623745,17.2715295 4.82752018,16.9830752 C4.68345782,16.7367809 4.67515541,16.4546477 4.80230968,16.1431136 L4.86509674,16.0078177 L6.31428453,13.2123997 Z M11.9142642,4.66666667 C11.6949921,4.66666667 11.4170161,4.68526662 11.2223424,4.71301155 C9.79152583,4.91668104 9.08722393,5.6681784 8.51739517,6.74398531 L8.42356732,6.926251 L7.20134801,9.36516989 C7.15230229,9.46320716 7.17273801,9.57986589 7.24545073,9.65433027 L7.29521397,9.69345904 L7.49275503,9.81079377 C8.57521365,10.454222 9.4795131,11.3886444 10.1525843,12.2329681 L10.4466208,12.6148706 L10.4466208,12.6148706 L10.7066606,12.975652 L10.7066606,12.975652 L10.9315444,13.3069861 L10.9315444,13.3069861 L11.1201127,13.6005467 L11.1201127,13.6005467 L11.3323373,13.951849 L11.3323373,13.951849 L11.383665,14.0410431 L11.4449344,14.1208679 C11.5392531,14.2434468 11.6748625,14.3236161 11.8231175,14.3469342 L11.9133588,14.3539874 C12.113918,14.3539874 12.2996881,14.2530826 12.4142287,14.087698 L12.4561817,14.0201182 L12.4561817,14.0201182 C14.1515035,10.6758466 17.475445,8.51825197 21.1354628,8.38402234 C21.3696749,8.37549734 21.580647,8.20980276 21.6180727,7.97218839 C21.6680238,7.65366414 21.4227953,7.38489484 21.1271628,7.39496982 C19.5466486,7.44905279 18.0234837,7.84902878 16.6433657,8.53674618 L16.301366,8.71463649 L15.4051121,6.926251 C14.8174689,5.75336894 14.1166433,4.92799601 12.6063371,4.71301155 C12.4116632,4.68526662 12.1336872,4.66666667 11.9142642,4.66666667 Z M11.9151697,9.76289888 L12.8230437,11.6501742 C12.4853073,12.0790581 12.1769984,12.5363069 11.8993242,13.0180457 C11.7118186,12.7212215 11.4651018,12.3540015 11.1645886,11.9545977 L10.9778683,11.711399 L11.9151697,9.76289888 Z M11.9142642,5.65540919 C12.0882633,5.65540919 12.3236828,5.67090914 12.4742909,5.69229909 C13.2855489,5.80779963 13.8524937,6.0863038 14.4445129,7.17755251 L14.549302,7.37869486 L15.4689469,9.21404529 C14.8793923,9.60361097 14.3251547,10.0501175 13.8146181,10.5483623 L13.5136074,10.8534761 L12.545973,8.915826 C12.4783151,8.77529304 12.350922,8.67781548 12.2043159,8.64922665 L12.1143708,8.64054667 L11.7159686,8.64054667 C11.5634239,8.64054667 11.4218829,8.71460207 11.3319553,8.83687954 L11.2845172,8.915826 L10.2939446,10.901216 C9.82426988,10.3850673 9.28175185,9.86891861 8.67446841,9.42080343 L8.36546697,9.20273027 L9.27937736,7.37869486 C9.76606177,6.4073123 10.2409752,5.8510187 11.3543885,5.69229909 C11.5049966,5.67090914 11.740416,5.65540919 11.9142642,5.65540919 Z" id="Shape" fill="#FFFFFF" fill-rule="nonzero"></path>
    </g>
</svg>