<?xml version="1.0" encoding="UTF-8"?>
<svg width="24px" height="24px" viewBox="0 0 24 24" version="1.1" xmlns="http://www.w3.org/2000/svg" xmlns:xlink="http://www.w3.org/1999/xlink">
    <g id="Icons" stroke="none" stroke-width="1" fill="none" fill-rule="evenodd">
        <g transform="translate(-148.000000, -380.000000)" fill="#FFFFFF" id="Icons/person">
            <g transform="translate(148.000000, 380.000000)">
                <path d="M11.9998748,13 C13.3817216,13 14.7635684,13.1188971 16.1454152,13.3566914 C17.832365,13.6469954 19.2041814,14.6633268 19.7431356,16.0221253 L20.8784577,18.8844404 C21.2945859,19.9335731 20.6077296,21.0641888 19.3443211,21.4097412 C19.2366572,21.4391881 19.1266242,21.4622867 19.0150426,21.4788648 C16.6766533,21.8262883 14.3382641,22 11.9998748,22 C9.66149504,22 7.32311528,21.8262897 4.98473552,21.4788691 C3.67533966,21.2843521 2.80378489,20.2452019 3.03805841,19.1578855 C3.05802259,19.0652272 3.08583922,18.9738549 3.12130084,18.8844499 L4.25662129,16.022119 C4.79557616,14.6633187 6.16739486,13.6469864 7.85434856,13.356689 C9.23619064,13.1188963 10.6180327,13 11.9998748,13 Z M12,15 C10.7077139,15 9.41400447,15.1048092 8.11626777,15.31508 C7.22044876,15.4602286 6.49197514,15.9683943 6.20577421,16.6477961 L5,19.5101279 C7.33541111,19.8368333 9.66816216,20 12,20 C14.3318363,20 16.6645968,19.836832 19,19.5101215 L17.7942215,16.6478001 C17.5080218,15.9684012 16.779547,15.4602333 15.8837346,15.3150822 C14.5859934,15.1048099 13.2922795,15 12,15 Z M12,2 C14.7614237,2 17,4.23857625 17,7 C17,9.76142375 14.7614237,12 12,12 C9.23857625,12 7,9.76142375 7,7 C7,4.23857625 9.23857625,2 12,2 Z M12,4 C10.3431458,4 9,5.34314575 9,7 C9,8.65685425 10.3431458,10 12,10 C13.6568542,10 15,8.65685425 15,7 C15,5.34314575 13.6568542,4 12,4 Z" id="Icon-Color"></path>
            </g>
        </g>
    </g>
</svg>