<?xml version="1.0" encoding="UTF-8"?>
<svg width="24px" height="24px" viewBox="0 0 24 24" version="1.1" xmlns="http://www.w3.org/2000/svg" xmlns:xlink="http://www.w3.org/1999/xlink">
    <g id="Icons" stroke="none" stroke-width="1" fill-rule="evenodd">
        <g transform="translate(-352.000000, -1046.000000)" fill="#373737" id="Icons/discussion">
            <g transform="translate(352.000000, 1046.000000)">
                <path d="M15,11 L5.17,11 L4.58,11.59 L4,12.17 L4,4 L15,4 L15,11 Z M15,2 L4,2 C2.8954305,2 2,2.8954305 2,4 L2,17 L2,17 L6,13 L15,13 C16.1045695,13 17,12.1045695 17,11 L17,4 C17,2.8954305 16.1045695,2 15,2 Z M20,6 L19,6 L19,6 L19,12 C19,13.6568542 17.6568542,15 16,15 L6,15 L6,15 L6,16 C6,17.1045695 6.8954305,18 8,18 L18,18 L18,18 L22,22 L22,8 C22,6.8954305 21.1045695,6 20,6 Z" id="Icon-Color"></path>
            </g>
        </g>
    </g>
</svg>
