<?xml version="1.0" encoding="UTF-8"?>
<svg width="24px" height="24px" viewBox="0 0 24 24" version="1.1" xmlns="http://www.w3.org/2000/svg" xmlns:xlink="http://www.w3.org/1999/xlink">
    <g id="Icons" stroke="none" stroke-width="1" fill="none" fill-rule="evenodd">
        <g transform="translate(-488.000000, -198.000000)" fill="#373737" id="Icons/toggle/crown-blank">
            <g transform="translate(488.000000, 198.000000)">
                <path d="M15.6735059,9.48837921 L18.3776224,8.50733088 L18.3776224,8.50733088 L17.3,13 L6.7,13 L5.66293608,8.50733088 L8.32468238,9.48474415 C8.72811811,9.63288879 9.18109273,9.50668908 9.44980969,9.17128124 L12,5.98817812 L12,5.98817812 L14.5520337,9.17358216 C14.8198558,9.50787296 15.2708423,9.6344648 15.6735059,9.48837921 Z M8.5,7.48216376 L4.69021469,6.09678728 C4.17118112,5.9080478 3.59741769,6.17580406 3.40867821,6.69483764 C3.34494358,6.87010785 3.33149236,7.05970874 3.36984408,7.24222147 L5,15 L5,15 L19,15 L20.6301559,7.24222147 C20.7437282,6.70174039 20.3976502,6.17152541 19.8571691,6.05795316 C19.6746564,6.01960143 19.4850555,6.03305266 19.3097853,6.09678728 L15.5,7.48216376 L15.5,7.48216376 L12.7525767,4.34225141 C12.3888946,3.92661477 11.757132,3.88449727 11.3414954,4.24817932 C11.3080846,4.27741374 11.2766577,4.30884063 11.2474233,4.34225141 L8.5,7.48216376 L8.5,7.48216376 Z M19,17 L5,17 L5,18 C5,18.6 5.4,19 6,19 L18,19 C18.6,19 19,18.6 19,18 L19,17 Z" id="Icon-Color"></path>
            </g>
        </g>
    </g>
</svg>