<?xml version="1.0" encoding="UTF-8"?>
<svg width="24px" height="24px" viewBox="0 0 24 24" version="1.1" xmlns="http://www.w3.org/2000/svg" xmlns:xlink="http://www.w3.org/1999/xlink">
    <g id="Icons" stroke="none" stroke-width="1" fill-rule="evenodd">
        <g transform="translate(-318.000000, -1046.000000)" fill="#373737" id="Icons/note">
            <g transform="translate(318.000000, 1046.000000)">
                <path d="M19,5 L19,14 L14,14 L14,19 L5,19 L5,5 L19,5 M19,3 L5,3 C3.9,3 3,3.9 3,5 L3,19 C3,20.1 3.9,21 5,21 L15,21 L21,15 L21,5 C21,3.9 20.1,3 19,3 Z M12,13 L7,13 L7,11 L12,11 L12,13 Z M17,9 L7,9 L7,7 L17,7 L17,9 Z" id="Icon-Color"></path>
            </g>
        </g>
    </g>
</svg>
