<?xml version="1.0" encoding="UTF-8"?>
<svg width="24px" height="25px" viewBox="0 0 24 25" version="1.1" xmlns="http://www.w3.org/2000/svg" xmlns:xlink="http://www.w3.org/1999/xlink">
    <g id="Icons" stroke="none" stroke-width="1" fill="none" fill-rule="evenodd">
        <g transform="translate(-80.000000, -197.000000)">
            <rect x="0" y="0" width="915" height="1701"></rect>
            <g id="Icons/toggle/checkbox-blank-toggler" transform="translate(80.000000, 198.000000)" fill="#FFFFFF">
                <path d="M12,2 C17.5228475,2 22,6.4771525 22,12 C22,17.5228475 17.5228475,22 12,22 C6.4771525,22 2,17.5228475 2,12 C2,6.4771525 6.4771525,2 12,2 Z M12,4 C7.581722,4 4,7.581722 4,12 C4,16.418278 7.581722,20 12,20 C16.418278,20 20,16.418278 20,12 C20,7.581722 16.418278,4 12,4 Z M15.6066017,9.70710678 C15.997126,10.0976311 15.997126,10.7307961 15.6066017,11.1213203 L11.9497475,14.7781746 C11.5592232,15.1686989 10.9260582,15.1686989 10.5355339,14.7781746 L8.70710678,12.9497475 C8.31658249,12.5592232 8.31658249,11.9260582 8.70710678,11.5355339 C9.09763107,11.1450096 9.73079605,11.1450096 10.1213203,11.5355339 L11.2419336,12.6561471 L14.1922514,9.70697004 C14.5828734,9.31649916 15.2160553,9.31656037 15.6066017,9.70710678 Z" id="Icon-Color"></path>
            </g>
        </g>
    </g>
</svg>