<?xml version="1.0" encoding="UTF-8"?>
<svg width="14px" height="14px" viewBox="0 0 14 14" version="1.1" xmlns="http://www.w3.org/2000/svg" xmlns:xlink="http://www.w3.org/1999/xlink">
    <title>heart</title>
    <g id="heart" stroke="none" stroke-width="1" fill="none" fill-rule="evenodd">
        <path d="M10.2741935,0 C12.3318996,0 14,1.66810037 14,3.72580645 C14,4.52448376 13.7486967,5.26446604 13.320849,5.87099439 L13.3225806,5.87096774 L7,14 L0.677419355,5.87096774 C0.251303299,5.26446604 0,4.52448376 0,3.72580645 C0,1.66810037 1.66810037,0 3.72580645,0 C5.13911481,0 6.36862868,0.786917767 7.00010077,1.94650601 C7.63137132,0.786917767 8.86088519,0 10.2741935,0 Z" id="Path" fill="#ED1C24"></path>
        <path d="M3.72580645,1.35483871 C4.08923319,1.35483871 4.43356196,1.43660681 4.7413992,1.58274943 C3.02327083,1.64113536 1.64113536,3.02327083 1.58257763,4.74127776 C1.43660681,4.43356196 1.35483871,4.08923319 1.35483871,3.72580645 C1.35483871,2.41635713 2.41635713,1.35483871 3.72580645,1.35483871 Z" id="Path" fill="#FFFFFF"></path>
        <path d="M10.2741935,0 C12.3318996,0 14,1.66810037 14,3.72580645 C14,4.52448376 13.7486967,5.26446604 13.320849,5.87099439 L13.3225806,5.87096774 L7,14 L0.677419355,5.87096774 L0.669641803,5.85954253 L0.669641803,5.85954253 L0.658358514,5.84064096 L0.658358514,5.84064096 L0.652770978,5.82700451 C0.650487928,5.8178346 0.654137954,5.8141492 0.663721056,5.8159483 L0.678068655,5.82073978 C0.680934568,5.82197712 0.684037803,5.82343384 0.687378362,5.82510994 L0.723851111,5.84611811 L0.723851111,5.84611811 L0.773139305,5.8789728 L0.773139305,5.8789728 L0.858792031,5.941207 L0.858792031,5.941207 L0.967227768,6.02450168 L0.967227768,6.02450168 L1.13481105,6.15823636 L1.13481105,6.15823636 L1.38290095,6.36215524 L1.38290095,6.36215524 L1.79342802,6.7077588 L1.79342802,6.7077588 L2.36420225,7.19725829 L2.36420225,7.19725829 L2.73113688,7.51527228 L2.73113688,7.51527228 L3.57180151,8.25002132 L3.57180151,8.25002132 L4.98795361,9.49980515 L4.98795361,9.49980515 L6.29643605,10.6627668 L6.29643605,10.6627668 L6.94815833,11.2440369 L6.94815833,11.2440369 L11.6144641,5.24453694 C11.9787246,4.72607581 12.1935484,4.09351031 12.1935484,3.41077003 C12.1935484,1.67553358 10.8058706,0.264406644 9.07971074,0.226584958 L8.99364945,0.225840731 C9.39294868,0.0797549389 9.82425723,0 10.2741935,0 Z" id="Path" fill="#C1272D"></path>
        <path d="M10.2741935,0.338709677 C11.2095145,0.338709677 12.0562887,0.717823397 12.6692326,1.33076735 C13.2821766,1.94371131 13.6612903,2.7904855 13.6612903,3.72580645 C13.6612903,4.44900605 13.4347136,5.11930931 13.0485034,5.669457 L13.0485034,5.669457 L6.99996382,13.4482557 L0.949953164,5.66967057 C0.565315486,5.11945286 0.338709677,4.44908575 0.338709677,3.72580645 C0.338709677,2.7904855 0.717823397,1.94371131 1.33076735,1.33076735 C1.94371131,0.717823397 2.7904855,0.338709677 3.72580645,0.338709677 C4.35703955,0.338709677 4.94798582,0.511282458 5.45388952,0.812032638 C5.97777977,1.12347548 6.41055939,1.57214274 6.70263797,2.10849407 C6.83138502,2.34491554 6.93098802,2.59505828 7.00019472,2.85297873 C7.06933564,2.5949978 7.16888471,2.34486576 7.29758527,2.1084542 C7.58955841,1.57212533 8.02227344,1.12347723 8.54611613,0.812043493 C9.05200111,0.511285934 9.64295359,0.338709677 10.2741935,0.338709677 Z" id="Path" stroke="#650408" stroke-width="0.677419355"></path>
    </g>
</svg>