<?xml version="1.0" encoding="UTF-8"?>
<svg width="14px" height="14px" viewBox="0 0 14 14" version="1.1" xmlns="http://www.w3.org/2000/svg" xmlns:xlink="http://www.w3.org/1999/xlink">
    <title>smile</title>
    <g id="smile" stroke="none" stroke-width="1" fill="none" fill-rule="evenodd">
        <circle id="Oval" fill="#FFD60B" cx="7" cy="7" r="7"></circle>
        <path d="M7,0 C10.8659932,0 14,3.13400675 14,7 C14,10.8659932 10.8659932,14 7,14 C3.13400675,14 0,10.8659932 0,7 C0,6.88348644 0.002846628,6.76763774 0.00847412991,6.65251966 C0.180149196,9.99108509 2.94141857,12.6451613 6.32258065,12.6451613 C9.81444551,12.6451613 12.6451613,9.81444551 12.6451613,6.32258065 C12.6451613,2.94141857 9.99108509,0.180149196 6.65262635,0.00846618821 C6.76763774,0.002846628 6.88348644,0 7,0 Z" id="Path" fill="#FFB000"></path>
        <path d="M7,7.1942452e-14 C9.27848142,7.1942452e-14 11.3027064,1.088601 12.5809415,2.77406941 C11.406434,1.88329818 9.94235054,1.35483871 8.35483871,1.35483871 C4.48884546,1.35483871 1.35483871,4.48884546 1.35483871,8.35483871 C1.35483871,9.94235054 1.88329818,11.406434 2.77389719,12.5807693 C1.088601,11.3027064 3.64153152e-13,9.27848142 3.64153152e-13,7 C3.64153152e-13,3.13400675 3.13400675,7.1942452e-14 7,7.1942452e-14 Z" id="Path" fill="#FFEB97"></path>
        <circle id="Oval" stroke="#975F00" stroke-width="0.677419355" cx="7" cy="7" r="6.66129032"></circle>
        <path d="M11.8533782,7.22595208 C11.7934401,9.54317861 9.89619675,11.4032258 7.56451613,11.4032258 C5.23283551,11.4032258 3.33559219,9.54317861 3.27565403,7.22595208 L11.8533782,7.22595208 Z" id="Path" fill="#FFFFFF"></path>
        <path d="M11.19,7.75 C10.9864274,9.66453976 9.42261928,11.1478266 7.5,11.25 C5.57738072,11.1478266 4.01357262,9.66453976 3.81,7.75 L11.19,7.75 M12,7 L3,7 C2.86945443,9.62068354 4.8800917,11.8547249 7.5,12 C10.1199083,11.8547249 12.1305456,9.62068354 12,7 L12,7 Z" id="Shape" fill="#975F00" fill-rule="nonzero"></path>
        <rect id="Rectangle" fill="#000000" fill-rule="nonzero" x="5" y="4" width="2" height="2" rx="1"></rect>
        <rect id="Rectangle" fill="#000000" fill-rule="nonzero" x="9" y="4" width="2" height="2" rx="1"></rect>
    </g>
</svg>