<?xml version="1.0" encoding="UTF-8"?>
<svg width="14px" height="14px" viewBox="0 0 14 14" version="1.1" xmlns="http://www.w3.org/2000/svg" xmlns:xlink="http://www.w3.org/1999/xlink">
    <title>thumbs_down</title>
    <g id="thumbs_down" stroke="none" stroke-width="1" fill="none" fill-rule="evenodd">
        <path d="M3.16129032,2.70967742 C3.16129032,4.47729032 1.46898592,4.86590323 0.677716556,5.87096774 C0.190260291,6.49012903 -5.24025268e-13,7.67741935 -5.24025268e-13,7.67741935 L-5.24025268e-13,12.8709677 C1.34355415,13.3415484 2.25714176,14 4.96774194,14 C7.13096291,13.9788799 7.50763989,13.9545816 8.35483871,13.0967742 C9.2583721,12.1935484 10.1612903,8.70664516 10.1612903,6.77419355 C10.1612903,6.62380645 10.1211496,6.45151613 10.0804906,6.26003226 C9.88284267,5.32609677 8.67988965,5.13145161 7.67741935,5.13145161 C6.95956207,5.13145161 6.27616325,5.24164516 6.2538008,5.24164516 C6.04034103,5.24164516 5.93937118,4.94245161 6.02836921,4.71370968 C6.29468568,4.03041935 6.32258065,2.95919355 6.32258065,1.80645161 C6.32258065,0 4.74193548,0 4.74193548,0 C4.74193548,0 3.16129032,0 3.16129032,2.70967742 Z" id="Path" fill="#FFD60B" transform="translate(5.080645, 7.000000) scale(-1, -1) translate(-5.080645, -7.000000) "></path>
        <path d="M0.732990125,5.39153572 L2.24889196,6.17682282 L4.81410264,6.51553249 L6.79871466,6.51553249 L8.40887556,5.69405689 L9.87764141,1.58905759 L9.87764141,0.112903226 C9.31929083,2.8725894 8.38001451,4.44228303 7.05981243,4.82198411 C5.73961035,5.20168518 3.65134788,4.96777908 0.795025021,4.12026582 L0.732990125,5.39153572 Z" id="Path-3" fill="#FFB000" transform="translate(5.305316, 3.314218) scale(-1, -1) translate(-5.305316, -3.314218) "></path>
        <path d="M4.61034674,9.58859933 L6.26893114,8.17304812 L7.23595506,6.6774707 L7.60170213,4.25911907 L8.78890194,3.45705446 L9.87764141,3.9817642 L9.73772405,5.31006247 C9.50616095,4.56153717 9.16023273,4.30851481 8.69993939,4.55099537 C8.00949938,4.91471622 8.89848204,7.73906424 7.04710885,8.68210525 C5.19573566,9.62514625 4.21657629,12.1015143 4.21657629,13.5173863 C4.21657629,14.0559955 4.21657629,13.0547427 4.21657629,10.5136279 L4.61034674,9.58859933 Z" id="Path-4" fill="#FFEB97" transform="translate(7.047109, 8.557868) scale(-1, -1) translate(-7.047109, -8.557868) "></path>
        <path d="M4.73072746,0.339828724 C4.88604157,0.347269427 5.34517305,0.395326671 5.6633487,0.764586384 C5.85356373,0.985341001 5.98387097,1.31849947 5.98387097,1.80645161 C5.98387097,2.90883558 5.96783175,3.93632663 5.71278274,4.59070797 C6.2314192,5.40607173 6.80560966,5.46725376 7.42656426,5.47036422 L7.67741935,5.47016129 C8.19575369,5.47016129 8.77518264,5.51980181 9.2116685,5.72479344 C9.46731864,5.84485722 9.67340922,6.02216217 9.74297257,6.30350254 C9.81183229,8.64866711 8.98193899,11.9909611 8.11384926,12.8587651 C7.32619177,13.6562856 6.95686282,13.6418539 4.96774194,13.6612903 C2.88404334,13.6612903 1.89578183,13.2597518 0.926458667,12.8660985 C0.732433755,12.7873027 0.539108568,12.7088636 0.338709677,12.6336568 L0.338709677,12.6336568 L0.338709677,7.70469629 C0.367077165,7.5356856 0.539811616,6.59368928 0.943847355,6.08048777 C1.15685119,5.80993188 1.44295396,5.59040347 1.73808164,5.37093516 C2.81225363,4.5704132 3.5,3.92428205 3.5,2.70967742 C3.5,1.89496464 3.64850254,1.34619245 3.8595682,0.980580165 C4.17091423,0.441260124 4.61793831,0.350778435 4.73072746,0.339828724 Z" id="Path" stroke="#975F00" stroke-width="0.677419355" transform="translate(5.080645, 7.000000) scale(-1, -1) translate(-5.080645, -7.000000) "></path>
        <rect id="Rectangle-Copy-4" stroke="#975F00" stroke-width="0.677419355" fill="#FFFFFF" transform="translate(11.741935, 4.000000) scale(-1, -1) translate(-11.741935, -4.000000) " x="9.82258065" y="0.338709677" width="3.83870968" height="7.32258065" rx="1.12903226"></rect>
        <path d="M10.1612903,0.677419355 C10.1612903,0.926838274 10.3634843,1.12903226 10.6129032,1.12903226 L10.6129032,1.12903226 L12.8709677,1.12903226 C13.1203867,1.12903226 13.3225806,0.926838274 13.3225806,0.677419355 L13.3225806,0.677419355 L13.3225806,2.03225806 C13.3225806,2.28167698 13.1203867,2.48387097 12.8709677,2.48387097 L10.6129032,2.48387097 C10.3634843,2.48387097 10.1612903,2.28167698 10.1612903,2.03225806 Z" id="Combined-Shape" fill="#CCCCCC" transform="translate(11.741935, 1.580645) scale(-1, -1) translate(-11.741935, -1.580645) "></path>
    </g>
</svg>